<?xml version="1.0" encoding="utf-8"?>
<!-- Generator: Adobe Illustrator 18.0.0, SVG Export Plug-In . SVG Version: 6.00 Build 0)  -->
<!DOCTYPE svg PUBLIC "-//W3C//DTD SVG 1.1//EN" "http://www.w3.org/Graphics/SVG/1.1/DTD/svg11.dtd">
<svg version="1.1" id="Layer_1" xmlns="http://www.w3.org/2000/svg" xmlns:xlink="http://www.w3.org/1999/xlink" x="0px" y="0px"
	 viewBox="0 0 533.5 171" enable-background="new 0 0 533.5 171" xml:space="preserve">
<g>
	<path fill-rule="evenodd" clip-rule="evenodd" fill="#FFFFFF" d="M287,142.8V70.3c0-1.1-0.9-2.1-2.1-2.1h-9.6
		c-1.1,0-2.1,0.9-2.1,2.1v18.5c-3.9-0.5-7.5-0.7-10-0.7c-16.8,0-24.9,9.9-24.9,26.2v8c0,16.3,8.1,26.2,24.9,26.2
		c6.7,0,14.5-1,21-2.7C286.6,145,287,144.4,287,142.8L287,142.8z M273.2,136.4c-2,0.4-6.3,0.7-10,0.7c-9,0-11.2-6.4-11.2-14.9v-8
		c0-8.5,2.2-14.9,11.2-14.9c2.5,0,7.1,0.3,10,0.7V136.4z"/>
	<path fill-rule="evenodd" clip-rule="evenodd" fill="#FFFFFF" d="M342,120.3v-5.8C342,99,333.2,88,317.2,88c-16,0-25,10.2-25,26.5
		v7.7c0,20.5,14.8,26.2,25.2,26.2c9.4,0,10.3-0.3,17-1.5c1.9-0.3,2.2-1,2.2-2.7v-6.9c0-1-0.8-1.6-1.9-1.6c-0.1,0-0.2,0-0.3,0
		c-4.4,0.4-8.4,0.8-16,0.8c-10,0-12.5-7.2-12.5-13.2v-0.3h34C341.4,122.9,342,122,342,120.3L342,120.3z M328.1,113.1H306v-0.4
		c0-8.2,4.7-12.8,11.2-12.8c6.5,0,10.9,4.7,10.9,12.8V113.1z"/>
	<path fill-rule="evenodd" clip-rule="evenodd" fill="#FFFFFF" d="M395.3,90.4c0-0.9-0.7-1.7-1.7-1.7h-10.4c-0.9,0-1.9,0.7-2.2,2.1
		l-10,41.6c-0.5,2-1.1,2.6-2,2.6c-0.8,0-1.5-0.6-2-2.6l-10-41.6c-0.3-1.4-1.1-2.1-2.1-2.1h-10.4c-0.9,0-1.7,0.7-1.7,1.7
		c0,0.2,0,0.5,0.1,0.7l13.1,47.4c2.1,7.7,7.6,9.8,12.9,9.8c5.3,0,10.9-2.1,13-9.8l13.1-47.4C395.3,90.9,395.3,90.6,395.3,90.4z"/>
	<path fill-rule="evenodd" clip-rule="evenodd" fill="#FFFFFF" d="M441.6,145.4v-37.5c0-20.4-19.4-21.9-34.9-18.7
		c-1.4,0.3-2,1-2,2.2v6.7c0,1.5,0.8,1.8,1.9,1.8c0.1,0,0.3,0,0.5,0c3.4-0.4,4.9-0.4,11.6-0.4c6.2,0,9.2,1.7,9.2,8.4v4.6h-6.6
		c-18.1,0-25.4,6.2-25.4,18v0.4c0,14.1,9.4,17.4,18,17.4c5,0,9.9-1.7,14.7-4.6v1.7c0,1.1,0.9,2.1,2.1,2.1h8.9
		C440.6,147.5,441.6,146.6,441.6,145.4L441.6,145.4z M427.8,134.5c-3,1.7-6.9,2.9-10.6,2.9c-5.2,0-7.5-1.4-7.5-6.5v-0.4
		c0-5.8,2.1-8.9,11.6-8.9h6.6V134.5z"/>
	<path fill-rule="evenodd" clip-rule="evenodd" fill="#FFFFFF" d="M481.4,145.8v-6.6c0-1-0.8-1.6-2.2-1.6h-5.5
		c-3.8,0-4.1-0.6-4.1-5.8V99.1h9.4c1.1,0,2.1-0.9,2.1-2.1v-6.2c0-1.1-0.9-2.1-2.1-2.1h-9.4V78c0-1-0.7-1.6-1.7-1.6
		c-0.1,0-0.3,0-0.4,0l-9.7,1.7c-1.1,0.2-2.1,0.9-2.1,2.1v8.5h-9.8c-1.1,0-2.1,0.9-2.1,2.1v4.7c0,1.1,0.9,1.9,2.1,2.1l9.8,1.5v32.7
		c0,14,4.8,16.6,16.6,16.6c2.3,0,4.6-0.3,7.1-0.7C480.7,147.4,481.4,146.8,481.4,145.8z"/>
	<path fill-rule="evenodd" clip-rule="evenodd" fill="#FFFFFF" d="M533.5,120.3v-5.8c0-15.5-8.8-26.5-24.8-26.5
		c-16,0-25,10.2-25,26.5v7.7c0,20.5,14.8,26.2,25.2,26.2c9.4,0,10.3-0.3,17-1.5c1.9-0.3,2.2-1,2.2-2.7v-6.9c0-1-0.8-1.6-1.9-1.6
		c-0.1,0-0.2,0-0.3,0c-4.4,0.4-8.4,0.8-16,0.8c-10,0-12.5-7.2-12.5-13.2v-0.3h34C532.8,122.9,533.5,122,533.5,120.3L533.5,120.3z
		 M519.6,113.1h-22.1v-0.4c0-8.2,4.7-12.8,11.2-12.8c6.5,0,10.9,4.7,10.9,12.8V113.1z"/>
	<path fill-rule="evenodd" clip-rule="evenodd" fill="#FFFFFF" d="M231.5,120.3v-5.8c0-15.5-8.8-26.5-24.8-26.5
		c-16,0-25,10.2-25,26.5v7.7c0,20.5,14.8,26.2,25.2,26.2c9.4,0,10.3-0.3,17-1.5c1.9-0.3,2.2-1,2.2-2.7v-6.9c0-1-0.8-1.6-1.9-1.6
		c-0.1,0-0.2,0-0.3,0c-4.4,0.4-8.4,0.8-16,0.8c-10,0-12.5-7.2-12.5-13.2v-0.3h34C230.8,122.9,231.5,122,231.5,120.3L231.5,120.3z
		 M217.6,113.1h-22.1v-0.4c0-8.2,4.7-12.8,11.2-12.8c6.5,0,10.9,4.7,10.9,12.8V113.1z"/>
</g>
<g>
	<path fill-rule="evenodd" clip-rule="evenodd" fill="#FFFFFF" d="M42,29.8c0,0,31.9,23.8,31.7,58.7c-0.2,34.9-10.4,54.6-20.3,62.9
		c-9.9,8.3-30.7,27.6-28,4.7c2.8-22.9,9.7-54,9.7-54s1.6-10.8-4.5-15.6C24.5,81.9,7.7,64.1,4.4,60.2C1,56.2-5.1,46.8,8.1,45.4
		C21.3,44,33.7,43.8,38,43C42.3,42.3,48.6,41.1,42,29.8z"/>
	<path fill-rule="evenodd" clip-rule="evenodd" fill="#FFFFFF" d="M59.6,35.9c0,0,9.3,24.8,25.5,25.3c16.3,0.5,29.4-24.8,29.4-24.8
		L96.8,6.1c0,0-3.7-7.6-10.1-5.8C80.3,2,72.4,14.5,59.6,35.9L59.6,35.9z M86.8,55.7c-5.9-0.3-8.5-6.7-8.4-12.2
		c0.2-13.1,18.4-16.4,17.3,2.1C95.5,50.5,92.5,55.9,86.8,55.7z"/>
	<path fill-rule="evenodd" clip-rule="evenodd" fill="#FFFFFF" d="M72.5,138.2c0,0,2-9,5-17.2c3.1-8.3,6.4-14.1,9.7-14.2
		c3.3-0.1,8,6.2,12.5,17.5c4.5,11.3,8.3,19.1,6.9,20.5c-1.4,1.4-5.1-1.2-9.7-4.3c-4.6-3.1-8.5-4.4-11-4.8c-2.5-0.4-5.9-0.7-9.3,1.6
		C73.2,139.7,72.4,140.5,72.5,138.2z"/>
	<path fill-rule="evenodd" clip-rule="evenodd" fill="#FFFFFF" d="M129.2,35.1c0,0-7.6,12.9,3.8,13.3c11.4,0.4,31-2.8,36.7-2.3
		c5.6,0.5,10.7,0.1,12.1,5.7c1.4,5.6-3.7,11.9-10.4,19.7c-6.7,7.8-23.8,22.8-23,34c0.9,11.2,9.3,39,11,50.5
		c1.8,11.5-1.5,16-9.5,14.7c-8-1.3-22.6-9.4-32.4-27.3s-12.3-34.2-14-50.6c-1.7-16.5-1.8-25,9.6-39.2
		C124.5,39.4,129.2,35.1,129.2,35.1z"/>
	<path fill-rule="evenodd" clip-rule="evenodd" fill="#FFFFFF" d="M42,29.8c0,0,31.9,23.8,31.7,58.7c-0.2,28.1-6.8,46.3-14.5,56.7
		C75,117.3,79.4,67.6,44.8,38.6C45.1,36.7,44.4,34,42,29.8z"/>
	<path fill-rule="evenodd" clip-rule="evenodd" fill="#FFFFFF" d="M76.9,122.7c0.2-0.6,0.4-1.2,0.6-1.8c3.1-8.3,6.4-14.1,9.7-14.2
		c3.3-0.1,8,6.2,12.5,17.5c1.8,4.4,3.4,8.3,4.7,11.4c-5.1-10.5-12.7-25.7-16.8-26.2C83.8,109.2,79.4,117.8,76.9,122.7z"/>
	<path fill-rule="evenodd" clip-rule="evenodd" fill="#FFFFFF" d="M129.2,35.1c0,0-3.5,5.9-2.2,9.8c-6.4,6.2-18.9,19.3-20.5,28.8
		c-2.2,12.8-2,45.1,11,69.8c-9.9-17.9-12.3-34.2-14-50.6c-1.7-16.5-1.8-25,9.6-39.2C124.5,39.4,129.2,35.1,129.2,35.1z"/>
</g>
</svg>
