<?xml version="1.0" encoding="utf-8"?>
<!-- Generator: Adobe Illustrator 18.0.0, SVG Export Plug-In . SVG Version: 6.00 Build 0)  -->
<!DOCTYPE svg PUBLIC "-//W3C//DTD SVG 1.1//EN" "http://www.w3.org/Graphics/SVG/1.1/DTD/svg11.dtd">
<svg version="1.1" id="Layer_1" xmlns="http://www.w3.org/2000/svg" xmlns:xlink="http://www.w3.org/1999/xlink" x="0px" y="0px"
	 viewBox="0 0 30 30" enable-background="new 0 0 30 30" xml:space="preserve">
<circle fill="#FFFFFF" cx="15" cy="15" r="15"/>
<path id="Facebook_10_" fill="#3C5B9B" d="M13.4,11.3c0,0.4,0,2,0,2h-1.5v2.5h1.5v6.8h3.1v-6.8h2.1c0,0,0.2-1.2,0.3-2.5
	c-0.3,0-2.3,0-2.3,0s0-1.5,0-1.7c0-0.3,0.3-0.6,0.7-0.6c0.3,0,1,0,1.7,0c0-0.3,0-1.5,0-2.6c-0.9,0-1.8,0-2.3,0
	C13.4,8.4,13.4,10.9,13.4,11.3z"/>
<path id="Facebook_9_" fill="#00A9DE" d="M13.1,10.9c0,0.4,0,2,0,2h-1.5v2.5h1.5v6.8h3.1v-6.8h2.1c0,0,0.2-1.2,0.3-2.5
	c-0.3,0-2.3,0-2.3,0s0-1.5,0-1.7c0-0.3,0.3-0.6,0.7-0.6c0.3,0,1,0,1.7,0c0-0.3,0-1.5,0-2.6c-0.9,0-1.8,0-2.3,0
	C13,8.1,13.1,10.6,13.1,10.9z"/>
</svg>
