<?xml version="1.0" encoding="utf-8"?>
<!-- Generator: Adobe Illustrator 18.0.0, SVG Export Plug-In . SVG Version: 6.00 Build 0)  -->
<!DOCTYPE svg PUBLIC "-//W3C//DTD SVG 1.1//EN" "http://www.w3.org/Graphics/SVG/1.1/DTD/svg11.dtd">
<svg version="1.1" id="Layer_1" xmlns="http://www.w3.org/2000/svg" xmlns:xlink="http://www.w3.org/1999/xlink" x="0px" y="0px"
	 viewBox="0 0 24.8 23.3" enable-background="new 0 0 24.8 23.3" xml:space="preserve">
<g>
	<path fill-rule="evenodd" clip-rule="evenodd" fill="#FFFFFF" d="M5.7,4.1c0,0,4.3,3.2,4.3,8c0,4.7-1.4,7.4-2.8,8.6
		c-1.3,1.1-4.2,3.8-3.8,0.6c0.4-3.1,1.3-7.4,1.3-7.4s0.2-1.5-0.6-2.1c-0.8-0.6-3.1-3.1-3.6-3.6c-0.5-0.5-1.3-1.8,0.5-2
		C2.9,6,4.6,6,5.2,5.9C5.8,5.8,6.6,5.6,5.7,4.1z"/>
	<path fill-rule="evenodd" clip-rule="evenodd" fill="#FFFFFF" d="M8.1,4.9c0,0,1.3,3.4,3.5,3.4c2.2,0.1,4-3.4,4-3.4l-2.4-4.1
		c0,0-0.5-1-1.4-0.8C10.9,0.3,9.9,2,8.1,4.9L8.1,4.9z M11.8,7.6c-0.8,0-1.2-0.9-1.1-1.7c0-1.8,2.5-2.2,2.4,0.3
		C13,6.9,12.6,7.6,11.8,7.6z"/>
	<path fill-rule="evenodd" clip-rule="evenodd" fill="#FFFFFF" d="M9.9,18.8c0,0,0.3-1.2,0.7-2.3c0.4-1.1,0.9-1.9,1.3-1.9
		c0.4,0,1.1,0.8,1.7,2.4c0.6,1.5,1.1,2.6,0.9,2.8c-0.2,0.2-0.7-0.2-1.3-0.6c-0.6-0.4-1.2-0.6-1.5-0.7c-0.3-0.1-0.8-0.1-1.3,0.2
		C10,19,9.9,19.1,9.9,18.8z"/>
	<path fill-rule="evenodd" clip-rule="evenodd" fill="#FFFFFF" d="M17.6,4.8c0,0-1,1.8,0.5,1.8c1.6,0.1,4.2-0.4,5-0.3
		c0.8,0.1,1.5,0,1.7,0.8c0.2,0.8-0.5,1.6-1.4,2.7c-0.9,1.1-3.2,3.1-3.1,4.6c0.1,1.5,1.3,5.3,1.5,6.9c0.2,1.6-0.2,2.2-1.3,2
		c-1.1-0.2-3.1-1.3-4.4-3.7s-1.7-4.7-1.9-6.9c-0.2-2.2-0.2-3.4,1.3-5.3C16.9,5.4,17.6,4.8,17.6,4.8z"/>
	<path fill-rule="evenodd" clip-rule="evenodd" fill="#FFFFFF" d="M5.7,4.1c0,0,4.3,3.2,4.3,8c0,3.8-0.9,6.3-2,7.7
		c2.2-3.8,2.8-10.6-2-14.5C6.1,5,6,4.6,5.7,4.1z"/>
	<path fill-rule="evenodd" clip-rule="evenodd" fill="#FFFFFF" d="M10.5,16.7c0-0.1,0.1-0.2,0.1-0.2c0.4-1.1,0.9-1.9,1.3-1.9
		c0.4,0,1.1,0.8,1.7,2.4c0.2,0.6,0.5,1.1,0.6,1.6c-0.7-1.4-1.7-3.5-2.3-3.6C11.4,14.9,10.8,16,10.5,16.7z"/>
	<path fill-rule="evenodd" clip-rule="evenodd" fill="#FFFFFF" d="M17.6,4.8c0,0-0.5,0.8-0.3,1.3C16.4,7,14.7,8.7,14.5,10
		c-0.3,1.7-0.3,6.1,1.5,9.5c-1.3-2.4-1.7-4.7-1.9-6.9c-0.2-2.2-0.2-3.4,1.3-5.3C16.9,5.4,17.6,4.8,17.6,4.8z"/>
</g>
</svg>
