<?xml version="1.0" encoding="utf-8"?>
<!-- Generator: Adobe Illustrator 18.0.0, SVG Export Plug-In . SVG Version: 6.00 Build 0)  -->
<!DOCTYPE svg PUBLIC "-//W3C//DTD SVG 1.1//EN" "http://www.w3.org/Graphics/SVG/1.1/DTD/svg11.dtd">
<svg version="1.1" id="Layer_1" xmlns="http://www.w3.org/2000/svg" xmlns:xlink="http://www.w3.org/1999/xlink" x="0px" y="0px"
	 viewBox="0 0 30 30" enable-background="new 0 0 30 30" xml:space="preserve">
<circle fill="#FFFFFF" cx="15" cy="15" r="14.8"/>
<g>
	<path fill="#3C5B9B" d="M9.9,17.2c0.1,0.3,0.2,0.5,0.3,0.6c0.6,0.8,1.4,1.2,2.3,1.5c-1.2,0.9-2.7,1.2-4.1,1.2
		c0.1,0.1,0.2,0.2,0.3,0.2c1.2,0.6,2.5,1,3.8,1.1c1.9,0.1,3.7-0.3,5.3-1.5c2.1-1.5,3.3-3.6,3.6-6.2c0.1-0.9,0.3-1.6,1-2.2
		c0.2-0.1,0.3-0.4,0.4-0.5c0,0,0,0-0.1-0.1c-0.4,0.1-0.8,0.2-1.2,0.3c0,0,0-0.1,0-0.1c0.3-0.5,0.7-0.9,1-1.4c0,0-0.1-0.1-0.1-0.1
		c-0.2,0.1-0.5,0.2-0.7,0.3c-0.6,0.3-1.1,0.4-1.8-0.1c-1-0.7-2.1-0.6-3.1,0c-1.1,0.6-1.5,1.6-1.5,2.8c0,0.1,0,0.3,0,0.4
		c-2.5-0.2-4.5-1.3-6.2-3.2c-0.3,0.7-0.4,1.4-0.3,2.2c0.1,0.7,0.6,1.3,1,1.8c0,0-0.1,0.1-0.1,0.1c-0.3-0.1-0.7-0.2-1.1-0.3
		c0.1,1.5,0.9,2.4,2.2,3c0,0,0,0.1-0.1,0.1C10.7,17.2,10.3,17.2,9.9,17.2z"/>
	<path fill="#3C5B9B" d="M9.9,17.2c0.4,0,0.7,0,1.1,0c0,0,0-0.1,0.1-0.1c-1.3-0.6-2.1-1.5-2.2-3c0.4,0.1,0.7,0.2,1.1,0.3
		c0,0,0.1-0.1,0.1-0.1c-0.5-0.5-0.9-1.1-1-1.8c-0.1-0.7,0-1.4,0.3-2.2c1.7,1.9,3.6,3,6.2,3.2c0-0.2,0-0.3,0-0.4
		c-0.1-1.2,0.4-2.2,1.5-2.8c1-0.6,2.1-0.7,3.1,0c0.6,0.5,1.2,0.4,1.8,0.1c0.2-0.1,0.5-0.2,0.7-0.3c0,0,0.1,0.1,0.1,0.1
		c-0.3,0.5-0.7,0.9-1,1.4c0,0,0,0.1,0,0.1c0.4-0.1,0.8-0.2,1.2-0.3c0,0,0,0,0.1,0.1c-0.1,0.2-0.3,0.4-0.4,0.5
		c-0.7,0.6-0.9,1.3-1,2.2c-0.3,2.6-1.5,4.7-3.6,6.2c-1.6,1.2-3.4,1.6-5.3,1.5c-1.4,0-2.6-0.5-3.8-1.1c-0.1,0-0.2-0.1-0.3-0.2
		c1.5-0.1,2.9-0.3,4.1-1.2c-0.9-0.3-1.8-0.7-2.3-1.5C10.1,17.7,10,17.5,9.9,17.2z"/>
</g>
<g>
	<path fill="#00A9DE" d="M9.6,16.9c0.1,0.3,0.2,0.5,0.3,0.6c0.6,0.8,1.4,1.2,2.3,1.5C11,20,9.6,20.2,8.1,20.2
		c0.1,0.1,0.2,0.2,0.3,0.2c1.2,0.6,2.5,1,3.8,1.1c1.9,0.1,3.7-0.3,5.3-1.5c2.1-1.5,3.3-3.6,3.6-6.2c0.1-0.9,0.3-1.6,1-2.2
		c0.2-0.1,0.3-0.4,0.4-0.5c0,0,0,0-0.1-0.1c-0.4,0.1-0.8,0.2-1.2,0.3c0,0,0-0.1,0-0.1c0.3-0.5,0.7-0.9,1-1.4c0,0-0.1-0.1-0.1-0.1
		c-0.2,0.1-0.5,0.2-0.7,0.3c-0.6,0.3-1.1,0.4-1.8-0.1c-1-0.7-2.1-0.6-3.1,0c-1.1,0.6-1.5,1.6-1.5,2.8c0,0.1,0,0.3,0,0.4
		c-2.5-0.2-4.5-1.3-6.2-3.2c-0.3,0.7-0.4,1.4-0.3,2.2c0.1,0.7,0.6,1.3,1,1.8c0,0-0.1,0.1-0.1,0.1c-0.3-0.1-0.7-0.2-1.1-0.3
		c0.1,1.5,0.9,2.4,2.2,3c0,0,0,0.1-0.1,0.1C10.4,16.9,10,16.9,9.6,16.9z"/>
	<path fill="#00A9DE" d="M9.6,16.9c0.4,0,0.7,0,1.1,0c0,0,0-0.1,0.1-0.1c-1.3-0.6-2.1-1.5-2.2-3c0.4,0.1,0.7,0.2,1.1,0.3
		c0,0,0.1-0.1,0.1-0.1c-0.5-0.5-0.9-1.1-1-1.8c-0.1-0.7,0-1.4,0.3-2.2c1.7,1.9,3.6,3,6.2,3.2c0-0.2,0-0.3,0-0.4
		c-0.1-1.2,0.4-2.2,1.5-2.8c1-0.6,2.1-0.7,3.1,0c0.6,0.5,1.2,0.4,1.8,0.1c0.2-0.1,0.5-0.2,0.7-0.3c0,0,0.1,0.1,0.1,0.1
		c-0.3,0.5-0.7,0.9-1,1.4c0,0,0,0.1,0,0.1c0.4-0.1,0.8-0.2,1.2-0.3c0,0,0,0,0.1,0.1c-0.1,0.2-0.3,0.4-0.4,0.5
		c-0.7,0.6-0.9,1.3-1,2.2c-0.3,2.6-1.5,4.7-3.6,6.2c-1.6,1.2-3.4,1.6-5.3,1.5c-1.4,0-2.6-0.5-3.8-1.1c-0.1,0-0.2-0.1-0.3-0.2
		C9.6,20.2,11,20,12.3,19c-0.9-0.3-1.8-0.7-2.3-1.5C9.8,17.3,9.8,17.1,9.6,16.9z"/>
</g>
</svg>
